<svg width="14" height="15" viewBox="0 0 14 15" fill="none" xmlns="http://www.w3.org/2000/svg">
<mask id="mask0" mask-type="alpha" maskUnits="userSpaceOnUse" x="0" y="0" width="15" height="15">
<path fill-rule="evenodd" clip-rule="evenodd" d="M0.000732422 0.281982H14.0002V14.281H0.000732422V0.281982Z" fill="white"/>
</mask>
<g mask="url(#mask0)">
<path fill-rule="evenodd" clip-rule="evenodd" d="M0.000244141 7.28174C0.000244141 3.41474 3.13424 0.281738 6.99924 0.281738C10.8672 0.281738 14.0002 3.41474 14.0002 7.28174C14.0002 11.1487 10.8672 14.2817 6.99924 14.2817C6.23624 14.2817 5.50224 14.1587 4.81524 13.9347C5.31224 11.0457 7.13724 8.68974 9.54824 7.68974C9.83424 8.02074 10.2562 8.22874 10.7272 8.22874C11.5852 8.22874 12.2802 7.53274 12.2802 6.67174C12.2802 5.81274 11.5852 5.11574 10.7272 5.11574C9.86624 5.11574 9.17124 5.81074 9.16924 6.66874C6.09324 7.59374 3.60124 9.74174 2.33624 12.5017C1.93424 12.1427 1.57524 11.7377 1.26624 11.2967C1.33824 8.60874 2.66724 6.25974 4.65824 4.87574C4.94424 5.19674 5.35924 5.39974 5.82224 5.39974C6.68224 5.39974 7.37824 4.70074 7.37824 3.84274C7.37824 2.98174 6.68224 2.28474 5.82224 2.28474C4.96224 2.28474 4.26624 2.98174 4.26624 3.84274C4.26624 3.88674 4.26924 3.93274 4.27124 3.97574C2.41824 4.62574 0.896244 5.91374 0.00524414 7.55274C0.00124414 7.46474 0.000244141 7.37274 0.000244141 7.28174Z" fill="#FFC10E"/>
</g>
</svg>
