<svg width="360" height="370" viewBox="0 0 360 390" fill="none" xmlns="http://www.w3.org/2000/svg">
<g filter="url(#filter0_d)">
<path fill-rule="evenodd" clip-rule="evenodd" d="M151 20.7432C168.945 10.3825 191.055 10.3825 209 20.7432L309.483 78.7568C327.428 89.1175 338.483 108.265 338.483 128.986V245.014C338.483 265.735 327.428 284.882 309.483 295.243L209 353.257C191.055 363.618 168.945 363.618 151 353.257L50.5173 295.243C32.5721 284.882 21.5173 265.735 21.5173 245.014V128.986C21.5173 108.265 32.5721 89.1175 50.5173 78.7568L151 20.7432Z" fill="url(#paint0_linear)"/>
</g>
<defs>
<filter id="filter0_d" x="0.517334" y="0.972656" width="358.965" height="390.055" filterUnits="userSpaceOnUse" color-interpolation-filters="sRGB">
<feFlood flood-opacity="0" result="BackgroundImageFix"/>
<feColorMatrix in="SourceAlpha" type="matrix" values="0 0 0 0 0 0 0 0 0 0 0 0 0 0 0 0 0 0 127 0"/>
<feOffset dy="9"/>
<feGaussianBlur stdDeviation="10.5"/>
<feColorMatrix type="matrix" values="0 0 0 0 0.718807 0 0 0 0 0 0 0 0 0 0 0 0 0 0.5 0"/>
<feBlend mode="normal" in2="BackgroundImageFix" result="effect1_dropShadow"/>
<feBlend mode="normal" in="SourceGraphic" in2="effect1_dropShadow" result="shape"/>
</filter>
<linearGradient id="paint0_linear" x1="316.423" y1="289.337" x2="316.423" y2="4" gradientUnits="userSpaceOnUse">
<stop stop-color="#AD0000"/>
<stop offset="1" stop-color="#F90000"/>
</linearGradient>
</defs>

<path opacity="0.118838" fill-rule="evenodd" clip-rule="evenodd" d="M87.4187 135.612L146.388 194.581C154.724 202.918 157.98 215.069 154.929 226.457L133.345 307.01C130.658 317.038 123.44 325.133 113.978 329.007L29.5173 280.243C11.5721 269.882 0.517341 250.735 0.517341 230.014L0.516968 141.815L55.5431 127.071C66.9312 124.02 79.0821 127.276 87.4187 135.612ZM177.054 0.852539C180.82 2.08632 184.49 3.71651 188 5.74312L288.483 63.7568C306.428 74.1175 317.483 93.2649 317.483 113.986L317.482 123.166L292.514 152.922C284.936 161.953 273.115 166.256 261.504 164.208L193.163 152.158C181.553 150.111 171.916 142.025 167.884 130.946L144.15 65.7363C140.117 54.6576 142.302 42.2692 149.88 33.2377L177.054 0.852539Z" fill="white"/>

</svg>
