<svg width="22" height="22" viewBox="0 0 22 22" fill="none" xmlns="http://www.w3.org/2000/svg">
<path fill-rule="evenodd" clip-rule="evenodd" d="M11 0C4.92487 0 0 4.92487 0 11C0 17.0751 4.92487 22 11 22C17.0751 22 22 17.0751 22 11C22 4.92487 17.0751 0 11 0ZM11 2C15.9706 2 20 6.02944 20 11C20 15.9706 15.9706 20 11 20C6.02944 20 2 15.9706 2 11C2 6.02944 6.02944 2 11 2ZM12.52 12.355C12.52 12.035 12.605 11.7625 12.775 11.5375C12.945 11.3125 13.215 11.035 13.585 10.705C13.895 10.425 14.1475 10.1775 14.3425 9.9625C14.5375 9.7475 14.7025 9.485 14.8375 9.175C14.9725 8.865 15.04 8.505 15.04 8.095C15.04 7.225 14.6925 6.545 13.9975 6.055C13.3025 5.565 12.38 5.32 11.23 5.32C10.25 5.32 9.4025 5.495 8.6875 5.845C7.9725 6.195 7.405 6.69 6.985 7.33L8.8 8.395C9.05 8.045 9.3575 7.7725 9.7225 7.5775C10.0875 7.3825 10.505 7.285 10.975 7.285C11.465 7.285 11.8575 7.3925 12.1525 7.6075C12.4475 7.8225 12.595 8.115 12.595 8.485C12.595 8.745 12.5175 8.9775 12.3625 9.1825C12.2075 9.3875 11.965 9.64 11.635 9.94C11.185 10.35 10.8425 10.725 10.6075 11.065C10.3725 11.405 10.255 11.835 10.255 12.355H12.52ZM11.395 16.12C11.805 16.12 12.1475 15.9875 12.4225 15.7225C12.6975 15.4575 12.835 15.135 12.835 14.755C12.835 14.375 12.7 14.0575 12.43 13.8025C12.16 13.5475 11.815 13.42 11.395 13.42C10.975 13.42 10.63 13.5475 10.36 13.8025C10.09 14.0575 9.955 14.375 9.955 14.755C9.955 15.135 10.0925 15.4575 10.3675 15.7225C10.6425 15.9875 10.985 16.12 11.395 16.12Z" fill="#004EFF"/>
</svg>
