<svg xmlns="http://www.w3.org/2000/svg" width="194" height="20" viewBox="0 0 194 20"><g><g><path fill="#004eff" d="M100.436 0H93.19c-4.227 0-7.651 3.263-7.651 7.288v5.22c0 4.024 3.425 7.287 7.65 7.287h7.246c4.226 0 7.652-3.263 7.652-7.288v-5.22c0-4.024-3.426-7.287-7.652-7.287z"/></g><g><path fill="#004eff" d="M73.884 0H7.654C3.426 0 0 3.263 0 7.288v5.145c0 4.027 3.426 7.29 7.654 7.29h66.23c4.226 0 7.652-3.263 7.652-7.29V7.288C81.536 3.263 78.11 0 73.884 0z"/></g><g><path fill="#004eff" d="M185.964 0h-66.23c-4.228 0-7.654 3.263-7.654 7.288v5.145c0 4.027 3.426 7.29 7.654 7.29h66.23c4.226 0 7.652-3.263 7.652-7.29V7.288c0-4.025-3.426-7.288-7.652-7.288z"/></g></g></svg>