<svg width="26" height="26" viewBox="0 0 26 26" fill="none" xmlns="http://www.w3.org/2000/svg">
<path fill-rule="evenodd" clip-rule="evenodd" d="M0 13C0 5.82072 5.82072 0 13 0C20.1793 0 26 5.82072 26 13C26 20.1793 20.1793 26 13 26C5.82072 26 0 20.1793 0 13ZM24 13C24 6.92528 19.0747 2 13 2C6.92528 2 2 6.92528 2 13C2 19.0747 6.92528 24 13 24C19.0747 24 24 19.0747 24 13ZM8.5 13C8.5 10.5147 10.5147 8.5 13 8.5C15.4853 8.5 17.5 10.5147 17.5 13C17.5 15.4853 15.4853 17.5 13 17.5C10.5147 17.5 8.5 15.4853 8.5 13ZM15.5 13C15.5 11.6193 14.3807 10.5 13 10.5C11.6193 10.5 10.5 11.6193 10.5 13C10.5 14.3807 11.6193 15.5 13 15.5C14.3807 15.5 15.5 14.3807 15.5 13ZM14.0839 3.72651L14.2005 3.73381C16.7049 4.0362 19.0407 5.24682 20.5892 7.05524C22.154 8.88284 22.8815 11.2847 22.5719 13.6191C22.4993 14.1666 21.9966 14.5515 21.4491 14.4789C20.9016 14.4063 20.5167 13.9036 20.5893 13.3561C20.8236 11.5895 20.2679 9.75514 19.07 8.356C17.8536 6.93544 15.977 5.96284 13.9607 5.71939C13.4124 5.65319 13.0216 5.15503 13.0878 4.60673C13.1493 4.09759 13.5832 3.72424 14.0839 3.72651ZM4.47929 11.4864L4.36298 11.4756C3.86261 11.458 3.41747 11.8179 3.34044 12.3249C2.86392 15.4617 4.37638 18.7847 7.0549 20.4862C7.52108 20.7823 8.13906 20.6445 8.43519 20.1783C8.73133 19.7121 8.59348 19.0941 8.1273 18.798C6.11775 17.5215 4.96029 14.9784 5.31776 12.6253C5.4007 12.0793 5.02531 11.5694 4.47929 11.4864Z" fill="white"/>
</svg>
