<svg width="26" height="26" viewBox="0 0 26 26" fill="none" xmlns="http://www.w3.org/2000/svg">
<path fill-rule="evenodd" clip-rule="evenodd" d="M0 13C0 5.82072 5.82072 0 13 0C20.1793 0 26 5.82072 26 13C26 20.1793 20.1793 26 13 26C9.00111 26 5.42372 24.1941 3.03894 21.3534L2.97664 21.3081C2.98044 21.3029 2.98425 21.2976 2.98805 21.2924C1.12187 19.0418 0 16.1518 0 13ZM5.6645 21.1968C7.61093 22.9399 10.1818 24 13 24C15.9762 24 18.6765 22.8178 20.6569 20.8973C18.4756 18.7396 15.6567 17.5717 12.8818 17.6955C10.263 17.8124 7.67085 19.0809 5.6645 21.1968ZM21.9633 19.3775C23.2457 17.5786 24 15.3773 24 13C24 6.92528 19.0747 2 13 2C6.92528 2 2 6.92528 2 13C2 15.5353 2.85791 17.8704 4.29924 19.7308C5.73156 18.2458 7.42454 17.1199 9.23701 16.4379C7.70126 15.2904 6.707 13.458 6.707 11.3936C6.707 7.91831 9.52472 5.1006 13 5.1006C16.4753 5.1006 19.293 7.91831 19.293 11.3936C19.293 13.3727 18.3792 15.1386 16.9505 16.2922C18.7755 16.901 20.4947 17.9532 21.9633 19.3775ZM17.293 11.3936C17.293 9.02288 15.3707 7.1006 13 7.1006C10.6293 7.1006 8.707 9.02288 8.707 11.3936C8.707 13.7643 10.6293 15.6866 13 15.6866C15.3707 15.6866 17.293 13.7643 17.293 11.3936Z" fill="#888888"/>
</svg>
