<svg xmlns="http://www.w3.org/2000/svg" width="26" height="26" viewBox="0 0 26 26"><g><g><path fill="#888" d="M2.062 12.508l.059-.154h-.102c-.006.1-.01.201-.014.303l.057-.149zm16.443-2.464a2 2 0 1 1-4-.001 2 2 0 0 1 4 0zM6.845 17.5a2.09 2.09 0 1 0 4.181.001 2.09 2.09 0 0 0-4.18-.001zm9.277-3.976h.36a3.403 3.403 0 1 0-3.404-3.403l.006.196.016.2.044.4-2.287 2.97a4.103 4.103 0 0 1 1.971 2.349zM26 13c0 7.18-5.82 13-13 13S0 20.18 0 13 5.82 0 13 0s13 5.82 13 13zM5.528 15.237L2.84 14.115l-.814-.331c.05.698.164 1.378.337 2.034l2.524 1.087c.09-.61.313-1.176.64-1.668zM13 24c6.075 0 11-4.925 11-11S19.075 2 13 2C7.384 2 2.75 6.21 2.083 11.646l.346.138 2.115.872 2.686 1.125c.45-.207.945-.335 1.466-.365l2.386-3.1-.004-.195a5.403 5.403 0 0 1 5.186-5.398l.217-.005a5.402 5.402 0 0 1 .432 10.79l-.058.002-4.055 3.34a4.092 4.092 0 0 1-7.625.263l-.034.079-1.69-.728A10.996 10.996 0 0 0 13 24z"/></g></g></svg>