<svg xmlns="http://www.w3.org/2000/svg" width="26" height="26" viewBox="0 0 26 26"><g><g><path fill="#888" d="M12.21 11.832a1 1 0 0 1 .116 1.993l-.117.007h-1.717a1 1 0 0 1-.117-1.993l.117-.007zm-4.13 0a1 1 0 0 1 .117 1.993l-.117.007H6.471a1 1 0 0 1-.117-1.993l.117-.007zM26 13c0 7.18-5.82 13-13 13S0 20.18 0 13 5.82 0 13 0s13 5.82 13 13zM13 24c6.075 0 11-4.925 11-11S19.075 2 13 2a10.95 10.95 0 0 0-6.41 2.06h8.655A3.26 3.26 0 0 1 18.5 7.135l.005.185v10.999a3.26 3.26 0 0 1-3.075 3.255l-.185.005h-9.13A10.954 10.954 0 0 0 13 24zM2.28 15.477h9.93a1 1 0 0 1 .116 1.993l-.117.007H2.95c.334.749.75 1.453 1.235 2.102h11.061a1.26 1.26 0 0 0 1.254-1.131l.006-.129V7.32a1.26 1.26 0 0 0-1.131-1.253l-.129-.007H4.465a10.95 10.95 0 0 0-2.404 5.772h2.001a1 1 0 0 1 .117 1.993l-.117.007H2.031c.042.561.126 1.11.25 1.645z"/></g></g></svg>