<svg width="26" height="26" viewBox="0 0 26 26" fill="none" xmlns="http://www.w3.org/2000/svg">
<path fill-rule="evenodd" clip-rule="evenodd" d="M0 13C0 5.82072 5.82072 0 13 0C20.1793 0 26 5.82072 26 13C26 20.1793 20.1793 26 13 26C5.82072 26 0 20.1793 0 13ZM24 13C24 6.92528 19.0747 2 13 2C6.92528 2 2 6.92528 2 13C2 19.0747 6.92528 24 13 24C19.0747 24 24 19.0747 24 13ZM7.5072 6.6311H18.4922V20.2014L12.9999 17.1288L7.5072 20.2012V6.6311ZM16.4919 16.7908V8.6308H9.5069V16.7908L13.0003 14.8373L16.4919 16.7908ZM15.2193 11.5152V9.5152H10.7813V11.5152H15.2193Z" fill="#888888"/>
</svg>
