<svg xmlns="http://www.w3.org/2000/svg" width="26" height="26" viewBox="0 0 26 26"><g><g><path fill="#888" d="M8.194 18.566l-.8-.8-2.581 2.58c.252.281.519.55.798.803zm6.588-9.758l-4.903 4.904.904.05 5.107-5.107zM8.07 15.614l2.275 2.275-.121-2.154zm9.08-4.438l.152-1.106-5.106 5.107.05.904zM26 13c0 7.18-5.82 13-13 13S0 20.18 0 13 5.82 0 13 0s13 5.82 13 13zM2 13c0 2.097.587 4.057 1.606 5.725l2.374-2.374-2.274-2.273 1.414-1.415 1.49 1.49 7.233-7.234 6.029-.832-.831 6.03-7.234 7.233 1.537 1.537-1.414 1.415-2.321-2.322-2.384 2.384A10.948 10.948 0 0 0 13 24c6.075 0 11-4.925 11-11S19.075 2 13 2 2 6.925 2 13z"/></g></g></svg>