<svg width="26" height="26" viewBox="0 0 26 26" fill="none" xmlns="http://www.w3.org/2000/svg">
<path fill-rule="evenodd" clip-rule="evenodd" d="M13.0001 0C5.82081 0 9.91821e-05 5.82072 9.91821e-05 13C9.91821e-05 20.18 5.82048 26 13.0001 26C20.1797 26 26.0001 20.18 26.0001 13C26.0001 5.82072 20.1794 0 13.0001 0ZM13.0001 2C19.0748 2 24.0001 6.92528 24.0001 13C24.0001 19.0754 19.0752 24 13.0001 24C6.92503 24 2.0001 19.0754 2.0001 13C2.0001 6.92528 6.92538 2 13.0001 2ZM15.279 10.7662L12.8766 4.05765L10.641 10.8532L6.67588 13.124L10.721 15.2332L13.1226 21.9358L15.358 15.1462L19.3233 12.876L15.279 10.7662ZM12.3019 12.207L12.957 10.2132L13.6604 12.1776L15.156 12.9572L13.6991 13.7929L13.043 15.7842L12.3403 13.8223L10.843 13.0412L12.3019 12.207Z" fill="#888888"/>
</svg>
