<svg width="24" height="24" viewBox="0 0 24 24" fill="none" xmlns="http://www.w3.org/2000/svg">
<path fill-rule="evenodd" clip-rule="evenodd" d="M12.002 6.44602L16.4882 1.95458C17.7407 0.702126 19.7571 0.675841 20.9942 1.91291L22.0893 3.0081C23.3228 4.25383 23.2966 6.27024 22.0448 7.50999L17.558 12.002L22.0442 16.4883C23.2502 17.6943 23.3193 19.6088 22.2181 20.8536L22.0858 20.9942L20.9976 22.0824C19.765 23.3273 17.7487 23.301 16.4876 22.052L12.002 17.56L7.50707 22.056C6.29653 23.2549 4.38203 23.3237 3.14427 22.2186L3.00454 22.0859L1.91284 20.9942C0.675771 19.7572 0.702056 17.7407 1.95509 16.4877L6.44696 12.003L1.95793 7.51397C0.74864 6.3163 0.679478 4.40214 1.7806 3.14649L1.91284 3.00461L3.00454 1.91291C4.24161 0.675841 6.25804 0.702126 7.51049 1.95458L12.002 6.44602ZM20.6716 4.41882L19.5799 3.32713C19.1323 2.87947 18.382 2.88925 17.903 3.36823L12.0041 9.2766L6.09628 3.36879C5.61674 2.88925 4.8664 2.87947 4.41875 3.32713L3.33053 4.41533C2.87933 4.87099 2.88911 5.62133 3.36872 6.09635L9.27596 12.0036L3.36872 17.9025C2.88919 18.382 2.8794 19.1324 3.32706 19.58L4.42222 20.6752C4.86613 21.1235 5.6163 21.1137 6.09628 20.6384L12.0041 14.7306L17.899 20.635C18.3824 21.1137 19.1326 21.1235 19.5799 20.6717L20.6716 19.58C21.1193 19.1324 21.1095 18.382 20.63 17.9025L14.7316 12.0041L20.6334 6.09294C21.1096 5.62133 21.1194 4.87099 20.6716 4.41882Z" fill="white"/>
</svg>
