<svg width="24" height="24" viewBox="0 0 24 24" fill="none" xmlns="http://www.w3.org/2000/svg">
<path fill-rule="evenodd" clip-rule="evenodd" d="M9 0C4.02944 0 0 4.02944 0 9C0 13.9706 4.02944 18 9 18C11.1256 18 13.079 17.2632 14.6189 16.031C14.6311 16.0446 14.6438 16.058 14.6569 16.0711L20.6673 22.0815L20.7545 22.1592C21.147 22.47 21.7188 22.4441 22.0815 22.0815C22.472 21.691 22.472 21.0578 22.0815 20.6673L16.0711 14.6569L16.0299 14.6202C17.2627 13.0801 18 11.1262 18 9C18 4.02944 13.9706 0 9 0ZM9 2C12.866 2 16 5.13401 16 9C16 12.866 12.866 16 9 16C5.13401 16 2 12.866 2 9C2 5.13401 5.13401 2 9 2Z" fill="#004EFF"/>
</svg>
