<?xml version="1.0" encoding="utf-8"?>
<!-- Generator: Adobe Illustrator 23.0.0, SVG Export Plug-In . SVG Version: 6.00 Build 0)  -->
<svg version="1.1" id="Слой_1" xmlns="http://www.w3.org/2000/svg" xmlns:xlink="http://www.w3.org/1999/xlink" x="0px" y="0px"
	 viewBox="0 0 23.9 23.8" style="enable-background:new 0 0 23.9 23.8;" xml:space="preserve">
<style type="text/css">
	.st0{fill-rule:evenodd;clip-rule:evenodd;fill:#004EFF;}
</style>
<path class="st0" d="M7.6,6.6l2.5-5.3c0.3-0.7,1-1.2,1.7-1.3c0.9-0.1,1.6,0.4,2,1.1l2.6,5.4c0,0,0,0.1,0.1,0.1L22,7.5
	c0.7,0.1,1.4,0.5,1.7,1.2c0.3,0.8,0.1,1.6-0.4,2.2L19,15.3c0,0,0,0.1,0,0.1l1,6c0.1,0.7-0.1,1.5-0.7,2c-0.7,0.5-1.6,0.6-2.2,0.2
	L12,20.7c0,0-0.1,0-0.1,0l-5.1,2.8c-0.9,0.5-2.1,0.2-2.6-0.6l-0.1-0.1c-0.2-0.4-0.3-0.8-0.2-1.3l1-6.1c0,0,0-0.1,0-0.1L0.6,11
	c-0.5-0.5-0.8-1.3-0.6-2c0.2-0.8,0.9-1.4,1.6-1.5L7.6,6.6C7.5,6.6,7.5,6.6,7.6,6.6z M11.8,2.2L9.4,7.4C9.1,8.1,8.5,8.5,7.8,8.6
	L2.2,9.5c-0.1,0-0.1,0.1-0.1,0.2l4.1,4.2c0.5,0.5,0.7,1.2,0.6,1.8l-1,5.9c0,0.1,0.1,0.2,0.2,0.1l4.9-2.7c0.6-0.4,1.4-0.4,2,0
	l4.9,2.7c0.1,0,0.2,0,0.2-0.1l-1-5.9c-0.1-0.7,0.1-1.3,0.6-1.8l4.1-4.2c0.1-0.1,0-0.2-0.1-0.2l-5.6-0.9c-0.7-0.1-1.3-0.6-1.6-1.2
	L12,2.2C12,2.1,11.9,2.1,11.8,2.2z"/>
<polygon class="st0" points="19.2,22.5 11.9,19 4.7,22.7 6,15 0,9.6 8.1,8.4 11.6,1.3 15.4,8.3 23.5,9.3 17.7,14.8 "/>
</svg>
