<svg width="23" height="18" viewBox="0 0 23 18" fill="none" xmlns="http://www.w3.org/2000/svg">
<path fill-rule="evenodd" clip-rule="evenodd" d="M6.96539 18C15.3235 18 19.8942 11.0755 19.8942 5.0712C19.8942 4.87443 19.8902 4.67856 19.8812 4.48374C20.7683 3.84242 21.5396 3.04217 22.1481 2.131C21.3338 2.49263 20.4576 2.73644 19.5385 2.84629C20.4767 2.28391 21.1969 1.39373 21.5366 0.332753C20.6585 0.853232 19.6864 1.23179 18.6513 1.43564C17.8222 0.552461 16.6413 0 15.3345 0C12.8249 0 10.7898 2.03505 10.7898 4.54372C10.7898 4.90039 10.8298 5.24705 10.9077 5.57981C7.13124 5.38995 3.78245 3.5817 1.54151 0.832236C1.1509 1.50359 0.926144 2.28391 0.926144 3.11606C0.926144 4.69264 1.72835 6.08434 2.94817 6.8985C2.20294 6.87556 1.50261 6.67073 0.890175 6.33001C0.889112 6.34896 0.889112 6.36801 0.889112 6.38795C0.889112 8.58893 2.45569 10.4262 4.53468 10.8428C4.15312 10.9466 3.75144 11.0026 3.33683 11.0026C3.04412 11.0026 2.75938 10.9737 2.48262 10.9207C3.06113 12.726 4.73853 14.0397 6.72761 14.0768C5.17211 15.2955 3.21298 16.0218 1.08402 16.0218C0.717332 16.0218 0.355698 16.0009 0 15.9589C2.01113 17.2477 4.39887 18 6.96539 18Z" fill="white"/>
</svg>
