<svg width="26" height="15" viewBox="0 0 26 15" fill="none" xmlns="http://www.w3.org/2000/svg">
<path d="M24.4698 15H21.6879C20.6346 15 20.3105 14.1726 18.4199 12.2776C16.7724 10.7028 16.0431 10.4893 15.638 10.4893C15.0708 10.4893 14.9088 10.6495 14.9088 11.4235V13.9057C14.9088 14.573 14.6927 14.9733 12.9101 14.9733C9.96619 14.9733 6.69814 13.2117 4.40241 9.92883C0.945302 5.12456 0 1.52135 0 0.774021C0 0.373665 0.162052 0 0.945302 0H3.72719C4.42942 0 4.6995 0.320285 4.96959 1.06762C6.34703 4.9911 8.64277 8.43416 9.58807 8.43416C9.93918 8.43416 10.1012 8.27402 10.1012 7.39324V3.3363C9.9932 1.46797 8.99388 1.30783 8.99388 0.640569C8.99388 0.320285 9.26396 0 9.6961 0H14.0715C14.6657 0 14.8818 0.320285 14.8818 1.01423V6.48576C14.8818 7.07295 15.1518 7.28648 15.3139 7.28648C15.665 7.28648 15.9621 7.07295 16.6103 6.43238C18.609 4.21708 20.0404 0.800712 20.0404 0.800712C20.2295 0.400356 20.5536 0.0266904 21.2558 0.0266904H24.0377C24.875 0.0266904 25.064 0.453737 24.875 1.04093C24.5238 2.64235 21.1208 7.39324 21.1208 7.39324C20.8237 7.87367 20.7156 8.08719 21.1208 8.621C21.4179 9.02135 22.3902 9.84875 23.0384 10.5961C24.2268 11.9306 25.145 13.0516 25.3881 13.8256C25.6582 14.5996 25.2531 15 24.4698 15Z" fill="white"/>
</svg>
